<?xml version="1.0" encoding="iso-8859-1"?>
<!-- Generator: Adobe Illustrator 19.0.0, SVG Export Plug-In . SVG Version: 6.00 Build 0)  -->
<svg version="1.1" id="Capa_1" xmlns="http://www.w3.org/2000/svg" xmlns:xlink="http://www.w3.org/1999/xlink" x="0px" y="0px"
	 viewBox="0 0 512 512" style="enable-background:new 0 0 512 512;" xml:space="preserve">
<g>
	<g>
		<g>
			<path d="M481.882,140.956c-0.005-0.029-0.017-0.051-0.023-0.079c-0.069-0.379-0.161-0.737-0.276-1.048
				c-0.889-2.41-3.259-3.73-5.771-3.257c-0.619,0.117-1.23,0.747-1.358,1.358c-0.558,2.674-0.45,6.064,2.568,7.195
				c0.014,0.006,0.029,0.008,0.043,0.013c0.679,0.609,1.539,0.962,2.552,0.81c2.151-0.323,2.584-2.864,2.28-4.861
				C481.891,141.043,481.89,141,481.882,140.956z"/>
			<path d="M368.615,86.2c0.187,1.949,0.776,3.766,1.695,5.492c1.89,3.549,5.241,6.951,9.23,7.94
				c0.246,0.061,0.528,0.064,0.798,0.013c1.871,3.558,4.866,6.188,9.597,6.403c0.316,0.014,0.592-0.032,0.828-0.125
				c2.029,1.744,4.583,2.995,7.176,3.614c0.548,0.131,1.093,0.207,1.637,0.262c-0.967,3.11-1.494,6.433,0.085,9.464
				c1.573,3.021,4.466,3.938,7.68,3.251c0.513-0.11,0.412-0.787,0-0.942c-2.595-0.979-4.976-1.766-5.882-4.648
				c-0.464-1.473-0.418-3.057-0.227-4.621c1.076,3.3,3.254,5.903,7.32,6.616c2.984,0.523,7.577,0.109,10.223-2.046
				c-0.017,0.805-0.146,1.599-0.511,2.391c-0.315,0.684-0.763,1.265-1.286,1.8c-0.46,0.47-0.889,1.156-1.364,1.554
				c-0.452,0.379-0.093,1.232,0.492,1.188c1.139-0.086,1.808-0.04,2.76-0.853c0.88-0.752,1.525-1.78,1.938-2.851
				c0.347-0.901,0.534-1.893,0.513-2.865c0.259,0.545,0.49,1.104,0.677,1.68c0.57,1.754,3.135,1.041,2.755-0.76
				c-1.249-5.918-5.019-10.458-10.834-12.436c-3.705-1.261-7.155-0.503-10.952-0.494c-6.073,0.014-13.145-2.744-15.652-8.849
				c-0.145-0.352-0.618-0.299-0.659,0.089c-0.196,1.854,0.128,3.566,0.809,5.112c-5.956-2.217-7.92-10.164-8.247-15.879
				c-0.065-1.141-1.809-1.16-1.789,0c0.049,2.876,0.352,6.235,1.187,9.387c-1.06-0.596-2.105-1.101-2.567-1.51
				c-4.61-4.086-4.908-9.282-6.092-14.88c-0.109-0.514-0.97-0.408-0.927,0.126C369.225,81.318,368.373,83.684,368.615,86.2z
				 M410.608,109.499c0.181,0.014,0.358,0.042,0.537,0.064c-0.042,1.297-0.179,2.649,0.032,3.896c0.254,1.496,2.314,1.186,2.732,0
				c0.327-0.928,0.292-2.082,0.112-3.17c1.335,0.52,2.572,1.26,3.664,2.186c-0.901,0.919-1.673,1.843-2.972,2.369
				c-1.835,0.744-4.347,0.838-6.275,0.378c-2.719-0.648-3.925-2.945-4.702-5.409C406.015,109.64,408.294,109.322,410.608,109.499z"
				/>
			<path d="M473.531,135.714c2.172-0.722,4.444-0.485,6.477,0.573c1.764,0.918,2.69,2.639,4.344,3.654
				c0.593,0.364,1.248-0.119,1.296-0.744c0.212-2.749-2.703-4.667-4.975-5.558c-2.617-1.027-5.354-0.852-7.915,0.243
				C471.718,134.327,472.46,136.07,473.531,135.714z"/>
			<path d="M501.221,355.253c-4.062-31.8-22.388-56.602-48.863-73.848c-8.461-5.511-17.417-10.207-26.587-14.415
				c-6.176-2.834-13.151-6.542-20.073-8.325c-15.196-6.453-32.847-8.351-48.862-8.975c-20.831-0.812-42.015,0.929-62.496-3.833
				c-17.531-4.076-34.622-13.103-43.41-29.469c-9.679-18.026-6.959-40.882,6.553-56.213c14.157-16.063,36.759-20.49,57.17-21.941
				c0.055-0.004,0.092-0.029,0.143-0.037c0.762,0.303,1.517,0.621,2.255,0.973c10.628,5.063,12.049,17.143,9.051,27.436
				c-0.562,1.929,1.736,3.822,3.488,2.682c6.126-3.987,13.164-6.353,20.416-7.15c7.165-0.788,13.586-0.915,20.363,1.754
				c7.106,2.8,12.778,8.53,20.185,10.734c10.744,3.198,20.363,8.787,31.198,11.851c11.483,3.247,23.155,6.702,34.98,8.468
				c8.834,1.319,15.96-0.153,21.02-7.791c0.594-0.896,0.15-2.116-0.695-2.652c-0.095-0.06-0.194-0.112-0.289-0.172
				c1.422-5.959,1.164-11.569-0.539-17.462c-0.373-1.29-2.351-1.698-3.008-0.393c-1.368,2.713-2.728,5.43-4.079,8.15
				c-0.524-2.55-1.302-5.046-2.292-7.54c-0.073-0.184-0.179-0.345-0.298-0.493c0.355-0.069,0.697-0.208,0.974-0.434
				c4.485-3.655,8.175-7.367,10.836-12.458c1.945,0.585,3.949,0.835,6.005,0.329c2.496-0.615,4.459-2.088,6.031-3.947
				c0.26-0.047,0.523-0.171,0.769-0.394c4.487-4.063,8.152-9.926,5.917-16.168c-1.978-5.524-7.827-8.373-13.166-9.645
				c-3.752-0.893-7.672-1.061-11.336-2.329c-4.042-1.399-6.625-4.555-10.234-6.614c-2.994-1.709-6.477-2.388-9.699-3.539
				c-5.854-2.091-8.226-4.19-9.333-10.518c-1.051-6.005-4.888-9.077-9.52-12.607c-7.13-5.435-12.078-12.844-15.213-21.193
				c-3.445-9.178-4.596-19.187-5.422-28.898c-0.654-7.681-1.109-16.002,0.134-23.796c0.383-1.814,0.781-3.631,1.193-5.452
				c0.457-1.598-2.061-2.769-2.764-1.165c-0.052,0.119-0.1,0.242-0.153,0.366c-1.201,2.781-2.245,5.649-3.144,8.581
				c-0.06,0.028-0.12,0.05-0.179,0.087c-9.202,5.697-18.441,9.66-29.467,9.726c-8.785,0.052-15.275-2.846-21.306-8.37
				c-2.125-3.692-4.532-7.215-7.441-10.441c-1.262-1.399-3.662,0.43-2.624,2.024c1.4,2.149,2.54,4.44,3.501,6.819
				c-2.089,11.75-8.101,22.193-16.113,30.96c-1.786,1.954-3.664,3.86-5.632,5.669c-0.027-0.114-0.063-0.227-0.116-0.335
				c-3.579-7.305-11.51-13.111-17.885-17.891c-6.982-5.236-14.493-9.735-22.266-13.693c-13.006-6.622-32.278-17.78-46.517-9.142
				c-1.418,0.86-1.392,2.887,0,3.754c2.74,1.704,4.922,3.84,6.778,6.358c-2.315,0.307-4.949,0.767-6.079,2.351
				c-1.902,2.665,1.131,5.452,2.856,7.082c7.534,7.114,17.58,12.084,21.839,21.909c-8.65,1.357-17.211,3.288-25.597,5.803
				c-7.184,2.154-16.029,4.351-22.678,8.525c-4.248-2.206-8.921-3.597-13.268-5.605c-4.911-2.269-9.658-4.894-14.235-7.776
				c-9.319-5.866-17.909-12.832-25.953-20.337c-7.633-7.122-14.767-14.76-21.625-22.626c-5.624-6.451-12.785-14.478-22.163-10.501
				c-1.305,0.553-1.152,2.315-0.411,3.19c3.329,3.93,6.225,8.125,8.842,12.555c0.676,1.144,2.912,3.913,1.838,5.452
				c-0.882,1.263-4.418,0.645-5.785,0.899c-4.845,0.9-7.495,4.488-5.829,9.372c0.953,2.793,3.319,4.434,4.747,6.892
				c2.605,4.481-1.043,5.488-2.44,9.142c-1.182,3.092,0.076,7.18,0.507,10.297c0.533,3.851,0.864,7.778,1.758,11.566
				c-4.827-1.884-9.523-4.122-14.044-6.667c-6.621-3.727-12.926-8.003-19.99-10.885c-7.965-3.249-16.413-4.845-24.7-7.021
				c-18.49-4.855-36.494-11.812-54.349-18.584c-2.693-1.021-3.804,3.249-1.183,4.289c1.032,0.428,2.064,0.855,3.096,1.28
				c8.112,3.485,15.569,7.747,22.741,12.528c11.161,14.01,12.224,35.512,9.367,52.418c-3.241,19.179-12.402,34.447-24.829,49.014
				c-1.494,1.751-0.079,4.346,2.239,3.846c8.606-1.855,20.906,1.162,26.868,7.882c7.119,8.024,3.183,19.042-0.222,27.787
				c-0.537,1.379,0.822,2.808,2.144,2.815c8.111,0.04,17.147,0.642,20.763,9.229c3.424,8.13-0.044,16.669-4.303,23.726
				c-1.195,1.98,0.77,4.132,2.843,3.698c11.861-2.484,25.216-1.016,31.111,11.012c0.223,0.454,0.564,0.741,0.954,0.902
				c2.123,3.622,3.834,7.373,4.608,12.061c1.568,9.489-0.085,19.084-2.091,28.367c-0.597,2.761,3.061,4.43,4.605,1.942
				c8.91-14.362,26.919-20.539,42.602-14.376c1.86,0.731,3.614-1.412,3.132-3.132c-1.665-5.944-2.242-11.738-2.027-17.412
				c1.227,3.652,2.808,7.202,4.385,10.543c0.703,1.489,1.453,2.956,2.227,4.409c-3.367,11.212-2.403,24.11-0.521,35.496
				c2.045,12.367,6.303,24.203,12.34,35.171c0.938,1.704,3.903,1.442,4.309-0.563c0.358-1.767,2.118-13.812,5.583-12.913
				c0.523,0.136,2.58,4.19,2.866,4.679c1.234,2.106,2.421,4.229,3.693,6.313c0.744,1.218,2.553,1.249,3.29,0
				c1.387-2.351,2.756-4.71,4.074-7.099c2.978,2.64,6.297,7.62,9.768,2.349c1.63-2.475,1.3-6.116,1.245-8.906
				c-0.065-3.276-0.407-6.514-0.952-9.729c1.834,0.922,3.695,1.793,5.585,2.603c13.14,5.631,26.79,8.536,40.68,9.869
				c-0.627,13.923,7.334,27.866,17.85,36.462c1.572,1.285,3.558,0.395,3.79-1.57c0.207-1.752-0.256-7.319,2.027-7.449
				c1.38-0.079,5.646,3.781,7.171,4.474c2.252,1.023,6.465,3.118,8.55,0.74c2.496-2.849,0.388-9.423-0.253-12.631
				c-0.781-3.905-1.611-7.78-1.277-11.786c0.22-2.637,1.154-5.125,1.516-7.689c9.163-0.393,18.315-0.988,27.392-1.486
				c0.187,8.345,2.722,16.528,7.211,23.588c3.293,5.179,8.475,11.665,14.339,6.145c1.685-1.587,0.402-1.423,2.315-0.637
				c0.927,0.381,1.559,1.048,2.595,1.23c2.67,0.468,5.274-1.085,6.659-3.304c2.018-3.232,1.068-7.29,1.319-10.876
				c0.456-6.53,3.598-11.882,8.006-16.525c0.043-0.045,0.071-0.093,0.109-0.138c1.987,0.116,3.974,0.25,5.957,0.427
				c4.841,0.432,9.667,1.077,14.447,1.96c-7.163,11.482-6.683,28.679-3.309,40.965c0.59,2.148,3.872,2.222,4.425,0
				c0.751-3.017,1.685-5.928,3.16-8.685c0.478-0.893,1.735-3.615,2.611-4.175c1.57-1.005,0.707-0.378,1.085,0.903
				c0.742,2.516,1.266,5.917,4.863,5.66c3.611-0.258,5.587-6.765,7.77-9.03c3.578-3.713,11.707-9.444,16.776-5.531
				c0.432,0.333,0.873,0.375,1.263,0.24c5.595,5.327,9.967,11.676,11.733,19.237c1.891,8.09,0.946,16.099-2.267,23.09
				c-0.948-5.533-4.466-10.868-8.344-14.547c-6.745-6.399-15.754-9.125-24.87-9.54c-1.692-0.077-2.923,2.025-1.981,3.452
				c1.537,2.329,3.074,4.658,4.612,6.987c0.627,0.95,2.508,2.967,3.198,4.353c-0.985-0.038-1.969-0.076-2.954-0.114
				c-2.626-0.102-5.251-0.203-7.877-0.305c-1.876-0.073-2.598,1.937-1.952,3.402c1.774,4.025,4.934,6.613,2.42,11.545
				c-1.127,2.211-3.781,4.214-5.182,6.397c-2.41,3.755-4.139,7.991-4.892,12.391c-7.584-0.032-15.099-0.522-22.611-1.484
				c-0.902-8.158-7.566-15.541-12.354-21.68c-6.368-8.164-13.193-15.961-21.962-21.613c-2.054-1.324-4.052,1.208-3.119,3.119
				c1.298,2.66,1.864,5.315,1.773,8.057c-2.025-1.931-4.422-3.769-6.607-3.162c-3.777,1.049-1.803,5.316-3.019,7.914
				c-2.118,4.525-5.836,0.018-8.96,2.521c-2.422,1.941-3.31,6.395-3.455,9.947c-7.491-2.416-14.987-4.816-22.552-6.985
				c-17.547-24.624-50.82-33.35-79.689-33.587c-18.015-0.148-35.649,3.081-53.687,0.97c-17.95-2.101-34.979-7.911-51.071-15.99
				c-2.1-1.054-4.392,1.58-2.591,3.358c6.33,6.247,12.407,12.754,18.307,19.408c3.162,3.567,9.213,8.472,7.478,13.878
				c-1.341,4.178-5.667,7.14-9.075,9.472c-13.522,9.251-28.84,15.034-44.903,17.962c-1.761,0.321-2.176,3.198-0.517,3.954
				c4.485,2.042,8.474,4.683,11.904,8.252c2.507,2.608,5.308,5.252,3.121,9.184c-1.199,2.157-3.654,3.639-5.591,5.014
				c-8.734,6.203-17.683,12.103-26.404,18.325c-2.111,1.506-1.236,4.386,1.266,4.675c2.758,0.319,6.1,0.647,8.469,2.273
				c4.851,3.33,2.662,9.078,0.252,13.221c-3.422,5.882-7.863,11.08-12.011,16.447c-7.063,9.139-13.499,19.338-13.041,31.304
				c0.065,1.693,2.502,3.167,3.749,1.553c8.897-11.513,24.773-19.02,39.369-18.294c14.808,0.737,22.929,17.284,37.94,17.111
				c12.647-0.146,16.176-13.871,26.066-19.014c6.38-3.318,14.52-3.453,20.958-0.222c5.991,3.007,10.079,8.846,15.614,12.565
				c2.19,1.472,4.112-1.304,3.255-3.255c-7.321-16.676,8.941-36.399,26.7-28.613c1.842,0.807,4.06-0.522,3.504-2.694
				c-4.175-16.306-0.38-34.706,11.197-47.202c10.922-11.787,26.975-17.32,42.825-15.873c23.314,5.38,45.658,14.373,66.729,25.7
				c22.374,12.027,44.068,24.735,70.282,24.597c11.756-0.062,23.434-2.192,34.642-5.67c11.799-3.662,22.737-9.161,33.871-14.437
				c2.558-1.212,5.123-2.428,7.506-3.954c9.354-5.992,15.265-16.344,19.267-26.435C502.501,389.802,503.358,371.985,501.221,355.253
				z M496.142,353.33c-2.224-0.615-4.615-0.799-6.804-0.743c-3.104,0.08-6.89,0.569-9.937,1.909
				c-0.957-5.034-2.369-9.96-4.228-14.649c1.917-0.415,3.802-1.631,5.746-2.138c3.98-1.037,7.577-0.75,11.438-0.355
				C494.058,342.539,495.305,347.899,496.142,353.33z M487.726,325.896c1.576,3.207,2.945,6.527,4.124,9.925
				c-2.505-0.453-5.173-0.371-7.601-0.063c-1.828,0.232-3.634,0.635-5.375,1.242c-0.73,0.255-2.728,1.49-4.07,1.951
				c-1.638-3.984-3.593-7.793-5.871-11.338c6.025,0.315,12.274-1.218,17.413-4.395C486.821,324.1,487.282,324.992,487.726,325.896z
				 M485.65,321.983c-5.502,2.888-11.112,4.464-17.291,4.75c-0.102-0.153-0.198-0.31-0.301-0.462
				c-2.798-4.127-6.033-7.894-9.594-11.341c0.66-0.218,1.306-0.455,1.918-0.658c2.269-0.754,4.518-1.637,6.644-2.738
				c2.577-1.335,5.276-3.149,7.095-5.539C478.515,310.897,482.412,316.223,485.65,321.983z M473.105,304.879
				c-1.837,2.296-3.934,4.092-6.723,5.553c-2.443,1.28-5.659,2.853-8.748,3.698c-3.689-3.467-7.716-6.597-12.001-9.396
				c2.547-0.736,5.005-2.357,6.915-3.868c2.565-2.029,5.694-5.185,6.925-8.5C464.335,296.181,468.925,300.35,473.105,304.879z
				 M451.385,286.483c2.33,1.571,4.616,3.222,6.854,4.937c-1.741,2.582-3.04,5.233-5.465,7.446c-2.224,2.03-5.311,4.164-8.43,5.047
				c-3.759-2.372-7.695-4.509-11.76-6.406c2.831-1.668,5.293-4.468,7.151-6.843c1.89-2.415,3.815-5.532,4.487-8.724
				C446.646,283.396,449.039,284.902,451.385,286.483z M428.289,273.238c4.905,2.471,9.759,5.053,14.492,7.838
				c-0.962,3.396-2.148,6.337-4.541,9.295c-1.998,2.469-4.313,4.734-6.929,6.55c-4.622-2.09-9.388-3.893-14.22-5.41
				c2.883-2.159,5.446-4.729,7.468-7.733c1.284-1.907,2.332-3.995,2.98-6.205C427.955,276.156,428.105,274.693,428.289,273.238z
				 M426.156,272.167c0.285,0.142,0.569,0.286,0.854,0.429c-0.145,0.926-0.239,1.872-0.426,2.861
				c-0.462,2.44-1.441,4.753-2.724,6.871c-2.079,3.433-4.985,6.16-7.936,8.825c-4.393-1.336-8.83-2.449-13.247-3.341
				c2.661-2.721,4.584-6.052,6.096-9.577c1.668-3.888,3.342-8.562,2.232-12.82C416.081,267.821,421.458,269.837,426.156,272.167z
				 M405.964,262.795c1.156,0.669,2.358,1.292,3.576,1.897c-0.024,0.095-0.034,0.198-0.013,0.315
				c1.468,8.068-2.962,16.362-8.055,22.564c-1.884-0.364-3.763-0.693-5.632-0.98c-2.202-0.598-4.416-1.129-6.64-1.605
				c3.014-4.663,2.947-12.2,1.676-17.139c-1.007-3.915-2.988-7.571-5.755-10.48C392.163,258.856,399.016,260.822,405.964,262.795z
				 M372.985,255.39c3.477,0.375,6.87,0.933,10.22,1.595c2.844,3.106,5.087,6.693,6.19,10.845c0.75,2.823,0.953,5.793,0.646,8.696
				c-0.312,2.955-1.574,5.421-2.409,8.142c-5.847-1.18-11.759-1.982-17.718-2.51c3.086-8.831,0.76-19.604-4.3-27.379
				C368.074,254.93,370.531,255.125,372.985,255.39z M364.441,254.709c2.412,3.923,4.108,8.309,4.812,12.856
				c0.78,5.039,0.134,9.654-0.892,14.461c-5.904-0.477-11.85-0.707-17.818-0.796c1.928-4.742,2.643-10.05,1.946-15.091
				c-0.546-3.946-2.059-8.566-4.782-11.834C353.29,254.32,358.872,254.399,364.441,254.709z M332.511,254.273
				c4.499,0.046,9.005,0.026,13.511,0.031c2.418,3.78,4.478,7.367,5.06,12.122c0.632,5.167-0.425,10.028-2.183,14.786
				c-6.259-0.068-12.538-0.002-18.816,0.076c2.285-4.566,2.763-10.36,2.102-15.19c-0.605-4.42-2.265-8.391-4.766-11.917
				C329.117,254.224,330.816,254.255,332.511,254.273z M326.237,254.146c2.611,3.954,4.319,8.577,4.715,13.27
				c0.428,5.082-0.907,9.364-2.591,13.892c-5.372,0.067-10.741,0.13-16.092,0.107c0.044-0.113,0.101-0.221,0.143-0.334
				c0.446-1.197,0.703-2.442,0.87-3.707c0.436-3.309,0.393-6.745,0.332-10.075c-0.089-4.832-0.721-9.953-3.2-14.132
				C315.666,253.703,320.955,253.993,326.237,254.146z M292.56,254.118c0.008-1.05,0.113-2.506,0.012-3.909
				c5.373,1.309,10.848,2.191,16.367,2.804c2.66,5.058,3.276,10.555,3.233,16.358c-0.021,2.845,0.042,5.801-0.461,8.612
				c-0.213,1.189-0.55,2.335-1.053,3.423c-8.525-0.065-17-0.368-25.363-1.25c3.066-4.86,5.075-10.629,6.204-16.126
				C292.17,260.768,292.536,257.448,292.56,254.118z M291.265,249.891c0.027,0.906-0.02,1.808-0.017,2.446
				c0.008,1.485-0.031,2.969-0.142,4.45c-0.229,3.047-0.721,6.074-1.473,9.036c-1.301,5.122-3.521,9.612-6.029,14.132
				c-11.554-1.33-22.888-3.792-33.836-8.303c6.371-0.677,12.463-3.615,17.262-7.882c3.226-2.868,5.901-6.368,7.94-10.166
				c1.293-2.407,2.645-5.197,3.392-8.008C282.575,247.358,286.886,248.765,291.265,249.891z M273.809,243.55
				c1.012,0.496,2.033,0.962,3.058,1.414c-0.929,2.675-1.729,5.381-3.103,7.935c-1.857,3.452-4.208,6.642-7.066,9.332
				c-5.323,5.008-12.089,7.866-19.256,8.429c-3.25-1.434-6.466-3.049-9.641-4.88c-3.058-1.763-5.931-3.686-8.628-5.75
				c12.775-3.84,24.46-13.812,31.243-25.233C264.457,238.215,268.951,241.168,273.809,243.55z M259.67,234.169
				c-3.677,5.272-8,10.118-12.97,14.193c-5.753,4.715-12.091,7.776-18.871,10.619c-7.015-5.621-12.756-12.254-17.214-19.702
				c14.299,2.765,31.552-2.564,41.316-13.214C254.236,228.994,256.838,231.696,259.67,234.169z M245.791,216.397
				c1.481,2.979,3.228,5.804,5.206,8.462c-5.937,5.334-12.158,9.507-20.01,11.802c-6.966,2.036-14.033,2.258-21.122,1.386
				c-3.868-6.756-6.7-14.16-8.486-22.073c5.934,4.49,14.055,6.69,21.201,6.919C230.45,223.144,239.212,221.027,245.791,216.397z
				 M217.598,184.499c4.016,1.597,8.234,3.013,12.477,3.86c3.219,0.643,7.085,1.12,10.323,0.023
				c-0.271,3.225-0.244,6.486,0.085,9.745c-3.027,2.542-6.98,2.701-10.807,2.729c-3.968,0.029-7.948-0.224-11.861-0.896
				c-6.755-1.161-13.218-3.623-18.665-7.762c0.182-6.213,0.937-12.427,2.335-18.479C205.76,178.733,211.376,182.025,217.598,184.499
				z M201.726,172.747c1.837-7.563,4.646-14.863,8.527-21.567c3.341,6.081,8.73,11.105,14.066,15.372
				c5.326,4.259,11.94,8.058,18.919,8.452c-1.345,3.85-2.25,7.852-2.703,11.921c-1.694,0.353-3.335,0.7-5.135,0.682
				c-2.309-0.024-4.592-0.421-6.83-0.966c-3.474-0.846-6.905-1.971-10.241-3.253C212.22,181.04,206.102,177.719,201.726,172.747z
				 M219.118,201.461c4.162,0.609,8.393,0.826,12.597,0.68c3.131-0.109,6.434-0.527,8.954-2.424c0.032,0.243,0.05,0.487,0.086,0.73
				c0.768,5.174,2.283,10.055,4.391,14.606c-7.008,4.063-14.192,6.743-22.566,6.492c-4.336-0.13-8.667-1.009-12.718-2.562
				c-3.181-1.219-6.004-2.907-8.843-4.668c-0.581-2.826-1.046-5.708-1.363-8.653c-0.433-4.023-0.618-8.098-0.551-12.178
				C204.838,197.989,211.876,200.401,219.118,201.461z M243.752,173.575c-7.595-0.844-14.021-4.167-19.955-9.135
				c-4.915-4.115-9.791-8.729-12.847-14.427c2.45-4.058,5.29-7.891,8.55-11.419c2.256-2.442,4.65-4.718,7.144-6.865
				c0.008,7.318,2.063,14.503,6.144,20.68c2.193,3.321,4.9,6.292,8.001,8.786c1.463,1.177,3.006,2.257,4.62,3.218
				c0.678,0.404,1.38,0.915,2.129,1.198C246.063,168.16,244.799,170.826,243.752,173.575z M248.526,164.007
				c-0.202,0.098-0.345,0.322-0.342,0.554c-0.018,0.031-0.038,0.061-0.056,0.091c-0.86-1.23-2.949-1.964-4.153-2.778
				c-1.576-1.066-3.066-2.259-4.458-3.555c-2.625-2.446-4.893-5.26-6.717-8.349c-3.409-5.773-5.098-12.421-5.17-19.096
				c4.692-3.922,9.756-7.356,15.088-10.362c0.493,6.365,1.799,12.593,4.49,18.454c2.328,5.07,5.885,10.473,10.496,13.92
				C254.134,156.178,251.069,159.938,248.526,164.007z M260.748,150.274c-0.635,0.503-1.252,1.024-1.861,1.553
				c-4.192-3.886-7.752-7.86-10.31-13.169c-2.806-5.823-4.26-12.26-4.894-18.689c5.184-2.856,10.609-5.318,16.184-7.434
				c-0.56,5.128-0.242,10.265,0.962,15.358c1.343,5.681,3.804,12.604,7.872,17.059C265.944,146.508,263.281,148.268,260.748,150.274
				z M269.936,144.275c-1.402-2.411-3.089-4.63-4.338-7.159c-1.444-2.923-2.565-5.999-3.368-9.159
				c-1.303-5.129-1.697-10.522-1.291-15.819c4.898-1.814,9.902-3.375,14.952-4.703c-0.552,5.039-0.424,10.117,0.331,15.146
				c0.836,5.559,2.25,11.875,5.08,16.884C277.384,140.727,273.58,142.324,269.936,144.275z M282.718,139.035
				c-1.911-5.296-4.07-10.242-5.055-15.886c-0.923-5.289-1.084-10.643-0.728-15.983c3.914-1.004,7.85-1.891,11.783-2.645
				c0.074,3.358,0.464,6.706,1.114,10.003c0.651,3.305,1.361,7.597,3.083,10.722c-1.086,2.048-2.535,3.782-4.935,5.521
				c-0.91,0.659-2.526,1.281-2.605,2.589c-0.058,0.965,0.509,1.755,1.546,1.675c5.688-0.438,11.788-0.435,17.683,0.471
				C297.181,135.803,289.785,136.912,282.718,139.035z M300.704,70.625c3.476,3.252,6.893,6.566,10.171,10.044
				c5.984,6.347,12.75,12.921,16.087,21.118c1.692,4.155,3.06,9.898,0.32,13.975c-2.601,3.869-9.164,4.875-13.319,6.257
				c-6.03,2.005-12.02,4.093-17.983,6.267c1.358-2.345,2.317-5.065,3.139-7.215c2.261-5.92,3.427-12.189,4.044-18.479
				C304.13,92.745,305.034,80.151,300.704,70.625z M294.857,120.377c-0.35,1.08-0.694,2.068-1.07,2.99
				c-0.341-0.898-0.718-1.787-1.008-2.677c-0.647-1.981-1.194-3.994-1.642-6.028c-0.753-3.413-1.152-6.86-1.4-10.332
				c3.093-0.577,6.181-1.086,9.249-1.528C298.357,108.968,296.752,114.527,294.857,120.377z M323.169,138.172
				c-5.629-3.787-12.98-5.414-20.368-6.069c10.526-1.901,21.907-3.037,31.855,0.267c4.367,1.45,7.833,4.291,7.667,9.126
				c-0.127,3.672-2.293,6.76-4.299,9.739c-1.474,2.189-3.632,4.337-5.548,6.579C332.515,150.186,329.621,142.511,323.169,138.172z
				 M361.469,158.839c-2.961-0.486-5.931-0.801-9.05-0.658c-4.291,0.197-12.734,0.454-16.257,3.208
				c5.262-4.114,10.927-8.924,17.345-8.65c3.425,0.146,6.292,1.552,9.253,3.124c1.026,0.544,2.44,1.098,3.382,1.717
				c0.552,0.363,2.501,2.609,2.817,2.668C366.414,159.772,363.944,159.246,361.469,158.839z M473.926,172.923
				c0.24,3.1-0.04,6.173-0.779,9.301c-0.918-0.498-1.84-0.988-2.777-1.444C471.568,178.167,472.752,175.547,473.926,172.923z
				 M468.309,160.856c0.136-3.892,0.008-7.681-0.77-11.53c1.408,0.437,2.807,0.947,4.199,1.574c1.007,0.454,2.035,0.954,3.083,1.428
				C473.177,155.558,471.059,158.542,468.309,160.856z M376.459,29.641c10.325,0.867,21.641-1.813,30.488-7.511
				c-4.948,20.666-2.957,43.889,4.695,63.421c-1.185-0.691-2.382-1.401-3.57-2.17c-4.789-3.102-8.634-6.927-12.591-10.966
				c-3.806-3.884-9.058-5.833-12.988-9.678c-10.712-10.479-15.145-24.666-21.434-37.739
				C365.662,27.868,371.622,29.235,376.459,29.641z M361.229,36.409c3.871,8.974,7.755,18.561,14.352,25.929
				c3.286,3.67,7.298,6.85,11.471,9.457c4.595,2.87,7.216,6.771,11.168,10.364c3.539,3.218,7.554,5.888,11.862,7.953
				c1.65,0.791,3.199,1.567,4.627,2.416c0.259,0.42,0.653,0.632,1.08,0.675c3.236,2.124,5.725,4.803,7.062,9.281
				c0.475,1.591,3.211,1.384,3.026-0.41c-0.699-6.804-4.352-10.369-8.97-13.374c-4.125-12.476-6.992-25.187-7.464-38.393
				c-0.188-5.275,0.034-10.449,0.546-15.575c0.237,7.85,1.115,15.698,2.699,23.641c1.488,7.455,3.55,14.794,7.362,21.423
				c3.672,6.384,8.897,10.331,14.432,14.942c3.575,2.978,4.124,5.595,5.301,9.826c0.706,2.538,1.884,4.583,3.813,6.319
				c-1.338,0.378-2.586,1.12-3.608,2.256c-1.778,1.976-3.717,7.163-0.504,8.814c0.328,0.169,0.635,0.008,0.767-0.312
				c0.828-2.003,0.164-4.21,1.503-6.119c1.107-1.578,3.125-2.396,5.078-2.371c1.258,0.699,2.574,1.269,3.911,1.794
				c-3.161,1.592-5.509,5.286-3.725,8.565c0.21,0.385,0.912,0.447,1.102,0c0.726-1.711,1.402-3.797,2.826-5.074
				c1.309-1.172,3.009-1.436,4.693-1.642c1.731,0.689,3.425,1.471,5.009,2.516c-1.01,0.347-1.914,0.999-2.711,1.705
				c-2.034,1.801-4.713,5.611-2.179,8.105c0.42,0.413,1.218,0.249,1.357-0.358c0.45-1.972,1.013-3.565,2.469-5.062
				c1.196-1.23,2.414-1.743,3.892-2.224c1.009,0.772,2.011,1.442,3.018,2.03c-1.259,0.766-2.3,1.89-2.985,3.215
				c-0.94,1.819-1.591,4.671,0.557,5.909c0.258,0.149,0.637,0.07,0.782-0.205c0.703-1.335,0.602-2.854,1.238-4.198
				c0.735-1.553,2.067-2.572,3.746-2.886c0.093-0.017,0.174-0.045,0.254-0.074c3.278,1.339,6.749,2.102,10.802,2.921
				c3.951,0.798,8.993,2.145,11.15,5.949c3.114,5.493-3.334,14.174-8.859,15.578c-3.587,0.911-7.154-1.285-10.24-2.69
				c-4.408-2.007-8.921-3.014-13.678-3.815c-5.245-0.883-10.124-1.855-14.875-4.362c-3.903-2.059-7.502-3.025-11.925-3.2
				c-2.815-0.112-5.72,0.103-8.48-0.598c-2.383-0.606-4.364-2.013-6.601-2.946c-3.274-1.366-5.963-1.16-9.349-0.36
				c-12.244,2.893-23.076,0.137-34.748-3.751c-1.65-0.55-2.685,1.959-1.178,2.795c9.114,5.053,17.605,11.263,24.784,18.844
				c2.945,3.109,5.581,6.468,9.032,9.051c4.262,3.19,9.203,3.702,13.901,5.91c3.963,1.862,6.932,5.083,10.306,7.772
				c3.926,3.128,8.278,4.518,13.159,5.444c10.579,2.005,20.18,4.756,29.924,9.18c-6.525,7.761-23.06,1.876-30.894,0.178
				c-10.589-2.295-21.937-3.993-31.625-9.08c-4.048-2.126-7.884-4.537-12.238-6.025c-4.748-1.622-9.569-2.446-14.004-4.927
				c-3.802-2.127-7.339-4.695-11.098-6.509c-5.121-5.83-11.862-11.026-19.844-11.22c-4.88-0.119-9.236,2.122-13.139,5.146
				c1.458-2.255,2.695-4.464,3.579-6.161c2.828-5.427,2.898-11.223-1.668-15.701c-7.454-7.31-18.678-7.219-29.357-5.198
				c3.005-0.957,6.002-1.938,8.979-2.971c8.147-2.826,12.534-8.519,11.32-17.431c-1.256-9.219-8.328-16.752-14.275-23.43
				c-3.849-4.322-7.8-8.61-11.882-12.767c8.637,4.935,17.234,9.943,25.781,15.018c8.627,5.122,20.734,15.161,27.081,1.921
				c5.551-11.578,3.77-27.599,1.581-39.78c-1.248-6.944-2.621-14.051-4.462-21.007C358.494,30.14,359.874,33.268,361.229,36.409z
				 M441.733,158.909c-2.449,2.889-4.88,5.792-7.312,8.695c0.003-3.824,0.006-7.649,0.009-11.473
				c0.001-1.307-1.447-2.11-2.568-1.474c-2.601,1.475-4.961,3.079-7.119,5.008c-0.171-2.197-0.775-4.394-1.372-6.482
				c-0.461-1.612-0.876-3.852-2.967-3.893c-2.008-0.039-4.462,1.877-6.092,2.887c-1.455,0.902-3.109,1.886-4.461,3.096
				c-0.252-0.153-0.501-0.313-0.745-0.483c-4.052-2.816-7.308-6.868-10.949-10.167c-4.03-3.651-8.304-6.938-12.81-9.88
				c6.685,1.668,13.533,2.669,20.305,1.753c3.42-0.462,6.334-1.518,9.694-0.299c0.038,0.014,0.075,0.031,0.113,0.045
				c-0.079,0.29-0.094,0.592,0.022,0.869c1.569,3.736,2.926,7.729,5.264,11.07c0.517,0.739,1.764,1.157,2.447,0.315
				c1.824-2.246,3.531-4.49,5.123-6.848c0.683,3.17,1.32,6.35,2.049,9.511c0.262,1.134,2.025,1.745,2.805,0.741
				c1.861-2.397,3.71-4.779,5.512-7.203c0.276,2.141,0.71,4.268,1.232,6.345c0.444,1.766,0.792,4.596,2.828,5.375
				c1.145,0.438,2.045,0.112,3.04-0.596c1.903-1.356,3.659-3.75,5.287-6.049c0.17,4.095,0.507,8.581,2.741,11.474
				c-0.173,0.119-0.333,0.259-0.454,0.443c-1.996,3.007-4.012,5.999-6.012,9.002c-0.852-3.651-1.691-7.304-2.511-10.962
				C444.539,158.428,442.625,157.856,441.733,158.909z M443.9,172.879c-2.504-0.516-4.971-1.167-7.275-2.218
				c1.809-2.128,3.614-4.258,5.413-6.394C442.67,167.135,443.29,170.005,443.9,172.879z M430.97,159.134
				c-0.039,2.527-0.078,5.053-0.118,7.58c-1.58-1.453-3.069-3.005-4.729-4.355C427.716,161.245,429.319,160.156,430.97,159.134z
				 M421.005,159.397c-2.334-0.902-4.782-1.476-7.134-2.295c0.384-0.287,0.772-0.57,1.172-0.836c0.797-0.53,1.609-1.036,2.436-1.518
				c0.471-0.275,1.404-0.977,2.196-1.364c0.41,1.145,0.638,2.987,0.817,3.739C420.672,157.881,420.83,158.642,421.005,159.397z
				 M419.9,138.38c0.647,0.311,1.306,0.598,1.998,0.82c1.448,0.463,2.929,0.695,4.426,0.822c-1.181,1.611-2.446,3.168-3.791,4.638
				C421.6,142.592,420.745,140.487,419.9,138.38z M431.135,140.208c2.168,0.043,4.327,0.127,6.428,0.589
				c-1.389,2.215-2.895,4.349-4.587,6.338C432.456,144.802,431.817,142.503,431.135,140.208z M442.802,146.214
				c-0.261-1.295-0.463-2.597-0.672-3.899c2.566,1.025,5.011,2.169,7.637,3.053c-0.73,0.904-1.46,1.809-2.196,2.709
				c-0.82,1.033-1.661,2.049-2.521,3.048c-1.102,1.865-1.506,2.085-1.212,0.658C443.214,150.967,443.048,147.439,442.802,146.214z
				 M454.034,167.193c0.543,2.738,1.1,5.473,1.654,8.209c-1.935-0.515-3.89-0.965-5.857-1.365
				C451.297,171.794,452.692,169.511,454.034,167.193z M454.524,146.566c2.865,0.53,5.678,0.977,8.449,1.575
				c-2.021,3.3-4.233,6.388-6.742,9.32C455.004,154.585,454.767,149.899,454.524,146.566z M457.44,162.148
				c2.453-3.103,4.786-6.308,6.947-9.623c0.403,4.056,0.103,8.149-0.23,12.238c-0.043,0.533,0.125,0.941,0.398,1.248
				c-0.283,0.124-0.539,0.344-0.734,0.678c-1.394,2.394-2.986,4.736-4.593,7.051c-0.9-3.686-1.819-7.367-2.706-11.056
				C456.875,162.615,457.202,162.448,457.44,162.148z M464.826,171.64c0.605,2.35,0.937,4.719,1.079,7.171
				c-1.433-0.584-2.884-1.122-4.35-1.622C462.703,175.359,463.769,173.51,464.826,171.64z M335.925,52.285
				c8.069-8.398,14.276-18.215,17.094-29.362c1.903,7.123,2.655,14.697,3.504,21.744c1.483,12.309,3.335,25.038,0.65,37.337
				c-0.504,2.311-1.209,5.047-2.87,6.816c-3.254,3.464-8.061,0.173-11.346-1.696c-5.412-3.08-10.828-6.15-16.205-9.292
				c-5.151-3.009-10.309-6.006-15.456-9.02C320.766,66.87,330.249,58.193,335.925,52.285z M248.331,14.523
				c7.023-1.727,14.428,0.812,21.081,3.463c7.372,2.937,14.603,6.32,21.565,10.129c6.941,3.797,13.633,8.067,19.856,12.96
				c4.718,3.71,8.749,8.406,13.399,12.184c-4.387-0.747-8.808-1.281-13.246-1.63c-5.332-10.126-17.123-18.125-26.813-23.434
				c-5.918-3.242-12.15-5.892-18.479-8.217C260.571,18.097,254.147,15.052,248.331,14.523z M260.917,38.269
				c-2.978-2.32-6.177-4.339-9.162-6.647c0.09,0.07-5.489-4.174-5.256-4.754c0.23-0.575,5.635-1.224,6.394-1.389
				c1.185-0.257,1.741-1.778,1.13-2.777c-0.691-1.127-1.44-2.177-2.218-3.195c3.111,1.051,6.395,1.808,9.274,2.81
				c6.745,2.348,13.387,5.022,19.705,8.367c5.52,2.921,10.786,6.347,15.538,10.408c3.595,3.072,6.358,6.645,9.257,10.208
				c-11.063-0.491-22.195,0.138-33.147,1.601C270.371,46.789,265.961,42.199,260.917,38.269z M130.525,11.208
				c-1.363-2.045-2.639-4.133-3.829-6.281c9.278,1.388,15.613,12.215,21.599,18.688c6.891,7.45,14.126,14.602,21.884,21.151
				c7.174,6.055,14.822,11.594,22.96,16.284c5.268,3.037,11.279,6.42,17.432,8.549c-0.826,0.045-1.646,0.099-2.454,0.166
				c-5.297,0.44-10.523,1.357-15.729,2.395c-12.615-8.949-24.883-17.503-35.813-28.66c-7.515-7.671-13.899-16.118-20.27-24.624
				c-0.585-0.991-1.364-1.943-2.131-2.84C132.965,14.424,131.749,12.815,130.525,11.208z M126.638,28.044
				c2.325-1.437,5.643,0.011,8.196-1.839c0.465-0.337,0.879-0.728,1.236-1.157c5.185,7.69,11.337,14.821,17.565,21.391
				c9.335,9.847,20.26,19.833,32.11,27.082c-8.491,1.76-16.988,3.447-25.711,3.524c-10.337,0.091-20.517-1.746-30.228-5.048
				c0.014-0.094,0.03-0.188,0.032-0.29c0.091-4.517-0.774-9.019-1.347-13.493c-0.432-3.367-1.311-6.222,0.404-9.473
				c0.514-0.974,1.539-1.691,2.071-2.686c1.157-2.167,1.247-4.383,0.374-6.657C130.428,37.023,123.001,30.292,126.638,28.044z
				 M51.4,96.814c1.896-14.413,1.104-32.766-6.742-46.13c3.427,2.503,6.817,5.108,10.212,7.79
				c11.651,9.206,23.749,17.471,38.641,20.139c8.338,1.493,16.675,1.9,24.349,5.849c7.239,3.725,13.491,9.108,20.675,12.96
				c9.475,5.08,19.418,7.896,29.673,7.586c-20.86,6.559-41.653,13.189-62.995,18.303c-13.455,3.225-26.982,6.145-40.411,9.481
				c-10.499,2.609-21.642,5.067-31.945,8.981C43.119,129.132,49.355,112.361,51.4,96.814z M54.388,156.995
				c-2.859-3.407-6.789-5.79-10.919-7.342c-4.17-1.567-8.478-1.773-12.75-2.229c12.107-3.363,23.986-7.569,36.225-10.578
				c13.756-3.383,27.61-6.35,41.368-9.725c19.414-4.762,39.012-10.274,57.789-17.563c-1.286,0.731-2.561,1.459-3.812,2.177
				c-12.524,7.177-24.217,15.578-35.476,24.591c-22.274,17.831-43.562,37.568-70.742,47.542
				C59.143,174.882,61.026,164.904,54.388,156.995z M77.073,195.623c-3.552-6.945-10.084-9.401-17.077-10.357
				c24.649-7.779,44.633-25.546,64.218-41.989c11.6-9.738,23.589-18.822,36.636-26.551c6.473-3.834,13.125-7.364,19.926-10.58
				c4.834-2.286,9.908-4.13,14.832-6.246c-18.579,14.846-31.199,37.051-46.543,55.046c-11.008,12.911-23.315,24.803-36.307,35.701
				c-6.596,5.534-13.419,10.784-20.453,15.75c-4.771,3.368-9.89,6.353-14.778,9.603C79.901,209.368,80.483,202.29,77.073,195.623z
				 M113.876,264.376c0.501-5.314,0.473-10.654-0.534-15.927c-1.192-6.242-4.021-14.031-9.105-18.56
				c-5.363-7.455-14.515-10.148-23.768-10.053c5.129-3.125,10.043-6.877,14.767-10.282c6.509-4.692,12.862-9.614,19.029-14.747
				c12.559-10.452,24.39-21.84,35.188-34.107c15.411-17.506,27.964-38.65,45.294-54.306c-3.634,4.21-6.854,8.754-9.65,13.274
				c-9.213,14.894-14.711,31.585-20.137,48.126c-6.241,19.024-13.271,37.061-23.907,54.111
				c-5.347,8.572-10.793,17.083-16.194,25.622C121.383,253.025,117.346,258.606,113.876,264.376z M151.071,259.726
				c-11.358-2.409-23.373,0.059-32.883,6.402c3.176-4.901,6.065-10.086,9.077-14.827c5.1-8.024,10.184-16.059,15.26-24.098
				c10.049-15.918,17.552-32.209,23.503-50.059c5.713-17.137,10.714-34.669,19.494-50.564c6.908-12.504,15.613-22.243,26.6-30.441
				c-10.493,11.454-12.911,31.22-16.477,44.918c-3.403,13.072-9.385,23.722-17.604,34.327c-6.293,8.119-11.382,16.91-13.827,26.831
				C154.267,219.745,147.599,239.73,151.071,259.726z M165.114,295.362c-1.977-10.461-1.453-20.548-1.261-30.968
				c2.333,3.92,4.924,7.686,7.734,11.278c-2.876,14.054-2.309,28.823,0.786,42.842C169.087,311.11,166.627,303.37,165.114,295.362z
				 M200.145,319.643c-0.837-0.527-1.59-1.799-2.384-2.459c-0.923-0.768-2.215-0.699-2.889,0.372
				c-1.252,1.989-2.432,4.02-3.601,6.059c-1.694-2.709-3.404-5.437-5.249-8.01c-1.167-1.628-2.375-3.294-4.546-3.402
				c-2.895-0.144-4.784,2.773-6.051,6.286c-2.535-13.054-2.557-25.96-0.842-39.172c7.825,9.135,17.163,16.924,27.581,22.9
				c0.009,0.069,0.009,0.135,0.025,0.207c1.036,4.688,1.677,9.376,1.685,14.186C203.879,319.073,203.652,321.851,200.145,319.643z
				 M256.545,317.64c2.977,0.236,5.964,0.397,8.958,0.508c-2.484,8.825-0.797,18.14,2.641,26.581
				C261.528,337.112,258.125,327.93,256.545,317.64z M289.965,345.563c-0.305,2.646-0.484,1.956-3.103,1.169
				c-3.231-0.971-5.657-2.499-8.421-4.284c-1.442-0.931-2.623-1.909-4.319-1.408c-1.514,0.447-2.329,1.883-2.788,3.619
				c-3.007-8.648-4.525-17.442-2.137-26.401c6.48,0.143,12.988,0.047,19.5-0.183c-1.6,3.7-1.645,8.492-1.332,12.166
				c0.263,3.089,1.001,6.108,1.614,9.138C289.349,341.214,290.182,343.683,289.965,345.563z M330.66,337.088
				c-3.976-6.378-6.031-13.466-6.807-20.856c2.834-0.145,5.659-0.275,8.473-0.382c-4.021,7.674-1.902,18.084,1.582,25.936
				C332.587,340.678,331.536,338.494,330.66,337.088z M351.025,328.665c-0.631,3.166,1.066,10.505-2.055,11.929
				c-2.706,1.235-5.677-2.135-9.372,0.596c-0.685,0.506-1.287,1.007-1.929,1.317c-1.226-4.051-2.563-8.105-3.15-12.303
				c-0.71-5.083,0.282-9.353,1.5-14.244c0.02-0.081,0.028-0.158,0.037-0.236c7.1-0.219,14.214-0.299,21.315-0.057
				C354.19,319.353,351.975,323.897,351.025,328.665z M382.073,345.957c-0.205-2.837-0.209-5.694,0.043-8.568
				c0.579-6.586,3.074-12.189,4.872-18.326c0.525,0.113,1.046,0.236,1.567,0.358c2.903,1.01,5.747,2.144,8.511,3.393
				c-4.013,1.812-7.257,6.437-9.284,9.852C385.398,336.686,383.354,341.27,382.073,345.957z M409.395,335.203
				c-2.907,1.35-5.59,3.206-7.88,5.451c-0.91,0.893-5.427,7.786-5.568,7.788c-2.393,0.04,0.185-10.277-6.503-7.31
				c-1.085,0.481-2.073,1.262-2.975,2.229c0.912-2.394,1.875-4.768,3.094-7.038c1.328-2.475,2.881-4.904,4.841-6.929
				c1.854-1.915,4.258-3.097,6.114-4.928c4.956,2.46,10.071,5.361,14.784,8.812C413.168,333.629,411.024,334.446,409.395,335.203z
				 M419.739,369.571c5.118,4.677,6.814,10.33,8.563,16.581c-1.259,1.856-2.704,3.6-4.306,5.222
				c-0.568-5.373-3.65-11.124-6.15-15.152c-3.246-5.229-7.581-10.293-12.753-13.836
				C410.483,363.539,415.616,365.803,419.739,369.571z M391.394,396.389c1.899-3.369,4.621-5.689,6.876-8.696
				c3.144-4.192,0.945-7.887-1.279-11.597c2.661,0.253,5.411,0.504,7.835,0.17c1.528-0.21,2.876-0.296,3.69-1.845
				c0.966-1.837-0.137-3.498-1.053-5.029c-0.405-0.677-0.842-1.339-1.266-2.008c3.149,2.878,6.036,5.939,8.441,9.717
				c1.866,2.931,3.505,6.092,4.445,9.446c0.746,2.665,0.752,5.421,1.232,8.091c-1.415,1.102-2.911,2.128-4.506,3.046
				c-6.719,3.869-14.257,6.014-21.908,7.069c-1.935,0.097-3.862,0.158-5.785,0.197C388.9,401.989,389.828,399.166,391.394,396.389z
				 M343.552,383.041c5.133,6.448,9.609,12.449,12.624,19.807c-2.901-0.447-5.804-0.966-8.712-1.553
				c-1.608-6.39-3.855-12.459-7.034-18.278c-3.114-5.701-6.836-10.164-11.014-14.804c-0.006-0.047-0.006-0.095-0.012-0.141
				C334.689,372.467,339.237,377.62,343.552,383.041z M310.01,382.714c-0.48,0.17,3.145,0.935,2.773,0.908
				c0.932,0.068,1.462,0.027,2.423-0.31c1.789-0.627,3.213-2.19,4.025-3.857c0.783-1.609,0.519-4.27,0.917-6.224
				c1.748,1.069,4.004,3.624,4.967,4.446c1.232,1.051,3.314,0.755,3.753-0.991c0.517-2.057,0.735-4.047,0.708-6.006
				c5.748,9.142,11.281,19.226,13.626,29.7c-1.754-0.396-3.51-0.812-5.271-1.263c-10.393-2.664-20.61-5.913-30.816-9.204
				C307.737,387.116,308.314,383.316,310.01,382.714z M107.408,343.532c10.416,4.53,21.435,7.725,32.604,9.574
				c16.671,2.76,32.773,1.531,49.51,0.405c29.492-1.983,62.828,4.271,83.99,26.18c-0.12-0.032-0.241-0.061-0.361-0.092
				c-3.729-3.591-9.054-6.311-13.252-8.318c-6.139-2.936-12.678-4.999-19.337-6.366c-15.738-3.23-31.799-2.634-47.741-1.725
				C162.884,364.898,129.685,366.224,107.408,343.532z M94.616,393.306c8.628-3.82,18.266-8.712,24.854-15.629
				c5.367-5.634,6.177-12.265,1.091-18.363c-1.847-2.215-3.779-4.367-5.738-6.498c17.956,12.975,43.172,14.824,64.694,14.477
				c17.39-0.281,34.915-2.197,52.249,0.026c7.543,0.967,15.049,2.697,22.132,5.495c0.279,0.11,0.554,0.232,0.831,0.346
				c-10.194-2.975-22.735-2.099-31.983-1.934c-16.782,0.301-33.057,2.663-49.088,7.69c-16.534,5.185-32.694,11.365-49.555,15.489
				c-16.354,4-32.59,5.451-49.264,5.352C81.624,398.267,88.271,396.116,94.616,393.306z M56.608,441.845
				c4.728-3.294,9.428-6.629,14.147-9.933c4.352-3.047,10.844-6.292,13.387-11.253c3.423-6.679-2.167-13.204-8.408-17.899
				c30.39,3.834,62.332-7.648,90.395-17.609c1.654-0.587,3.305-1.149,4.956-1.694c-0.384,0.177-0.771,0.355-1.15,0.531
				c-13.217,6.153-25.945,13.413-38.654,20.538c-12.536,7.028-25.028,14.14-37.767,20.797
				C82.032,431.322,69.54,438.808,56.608,441.845z M161.907,486.062c-5.225-2.342-11.148-2.915-16.76-1.865
				c-5.956,1.115-11.155,4.145-15.258,8.562c-5.255,5.659-9.383,13.431-18.339,12.379c-8.382-0.985-14.551-7.776-21.523-11.829
				c-6.469-3.762-13.569-4.759-20.954-3.912c-11.258,1.291-21.192,5.902-29.583,12.968c15.456-23.137,39.405-38.937,66.726-44.597
				c15.68-3.248,30.748-6.122,45.069-13.63c14.082-7.383,26.887-16.931,40.811-24.595c8.536-4.699,17.421-8.477,26.828-11.068
				c2.537-0.698,5.081-1.249,7.631-1.721c-0.98,0.35-1.957,0.694-2.926,1.018c-6.031,2.014-12.047,4.181-17.68,7.159
				c-9.008,4.762-16.871,11.549-23.09,19.604c-11.588,15.007-18.637,37.69-13.358,56.729
				C167.206,489.226,164.787,487.354,161.907,486.062z M213.243,425.789c-4.006,5.865-6.894,12.488-8.407,19.43
				c-0.453,2.078-2.924,20.698-0.354,21.13c-8.731-1.465-17.907,0.827-24.282,7.337c-4.039,4.124-6.259,9.365-6.818,14.82
				c-0.9-8.01-1.324-15.831,0.11-24.138c1.868-10.819,6.738-21.058,13.677-29.542c6.237-7.627,14.161-13.844,23.05-18.092
				c6.392-3.055,13.343-4.887,20.138-7.015C223.664,413.729,217.832,419.072,213.243,425.789z M198.613,412.525
				c-15.198,6.721-28.481,16.883-42.749,25.267c-7.346,4.316-14.97,8.233-23.087,10.883c-8.597,2.807-17.544,4.269-26.373,6.133
				c-14.742,3.113-28.9,8.118-41.401,16.695c-9.737,6.68-17.969,14.942-24.641,24.468c4.86-10.908,14.186-19.802,20.588-30.022
				c3.102-4.953,6.274-11.365,3.125-17.075c-1.204-2.184-3.055-3.676-5.187-4.743c9.968-1.919,19.661-7.605,28.412-12.004
				c13.131-6.601,25.949-13.796,38.754-21.002c12.515-7.043,25.021-14.121,37.817-20.647c6.631-3.382,13.375-6.594,20.458-8.921
				c0.608-0.2,1.219-0.374,1.83-0.551c-9.753,3.79-19.068,8.739-27.93,14.394c-17.031,10.869-32.138,24.05-47.067,37.546
				c-1.393,1.215-2.768,2.452-4.113,3.726c-1.679,1.524,0.785,3.934,2.473,2.473c18.262-15.802,40.265-26.873,63.604-32.915
				c11.777-3.049,23.87-4.84,36.018-5.453c9.466-0.478,18.274,0.131,27.276,0.937C223.39,402.882,210.05,407.468,198.613,412.525z
				 M252.421,398.238c-24.74-4.178-50.059-4.146-74.814,1.581c-15.088,3.491-29.707,9.05-43.141,16.673
				c21.466-17.515,45.722-31.867,72.987-36.979c44.488-8.342,86.262,13.08,128.232,24.003c7.36,1.915,15.049,3.697,22.852,4.945
				c0.287,0.161,0.619,0.203,0.941,0.141c2.327,0.359,4.663,0.677,7.003,0.928c7.041,1.807,15.588,1.21,22.568,0.651
				c7.482-0.6,14.928-1.997,21.921-4.779c11.852-4.716,21.935-13.344,26.13-25.64c3.885-11.385,2.559-24.731-3.906-34.926
				c-6.972-10.995-19.455-19.185-31.28-24.612c-3.708-2.158-7.906-3.6-12.219-4.659c-7.723-2.341-15.557-3.572-23.564-3.749
				c-5.852-0.566-11.731-0.869-17.608-0.988c-20.066-0.408-40.086,1.604-60.126,2.227c-38.071,1.183-77.415-3.603-105.357-32.095
				c-6.863-6.998-12.732-14.934-17.403-23.551c-3.975-7.333-6.192-15.329-9.529-22.874c3.082-15.295,10.934-29.818,17.702-44.195
				c0.038-0.081,0.047-0.157,0.063-0.235c2.881-4.947,6.141-9.683,9.867-14.388c6.441-8.131,11.598-16.95,14.735-26.878
				c3.381-10.698,4.359-21.996,7.766-32.693c3.402-10.682,9.296-19.122,18.42-25.571c1.412,0.009,2.838,0.082,4.285,0.241
				c1.481,0.163,1.78-2.255,0.35-2.587c-13.792-3.203-26.369,2.605-39.251,6.857c-7.018,2.316-14.18,4.693-21.618,5.063
				c-8.685,0.432-17.206-1.918-24.984-5.661c-7.14-3.437-13.385-8.191-20.135-12.272c-6.904-4.174-14.176-5.968-22.076-7.27
				c-8.032-1.324-15.646-2.867-23.035-6.447c-6.626-3.211-12.827-7.381-18.815-11.643c-6.696-4.766-13.228-9.592-19.916-14.148
				c10.343,3.767,20.825,7.128,31.62,9.755c10.796,2.628,20.719,5.633,30.436,11.153c8.505,4.832,17.069,9.404,26.313,12.683
				c9.18,3.257,18.652,5.532,28.41,5.935c9.936,0.41,19.686-1.365,29.361-3.424c9.885-2.103,19.784-4.533,29.946-4.617
				c9.675-0.08,18.444,2.362,27.1,6.557c0.883,0.428,1.783-0.629,1.069-1.385c-1.784-1.889-3.799-3.443-5.977-4.716
				c1.379,0.089,2.752,0.249,4.099,0.669c3.676,1.145,6.148,3.453,8.576,6.309c0.309,0.363,0.877,0.051,0.891-0.369
				c0.304-9.009-12.564-11.443-19.708-9.351c-1.82-0.61-3.693-1.102-5.605-1.463c1.637-0.7,3.26-1.428,4.887-2.05
				c4.144-1.583,8.344-3.02,12.589-4.309c8.793-2.671,17.777-4.706,26.862-6.084c17.953-2.724,35.897-2.359,53.911-0.683
				c-0.893,0.676-1.797,1.334-2.725,1.952c-2.794,1.86-5.749,3.438-8.954,4.461c-2.831,0.904-5.505,0.829-8.3,0.945
				c-3.542-2.096-7.077-4.202-10.593-6.34c-2.087-1.269-4.498,1.737-2.643,3.426c2.183,1.987,4.361,3.972,6.53,5.964
				c1.892,10.614,2.474,21.412,1.665,32.169c-0.108-0.024-0.221-0.04-0.343-0.036c-26.365,0.824-54.479,11.184-74.613,28.384
				c-18.688,15.965-28.127,39.993-28.745,64.254c-0.625,24.562,6.646,49.673,25.409,66.369
				c19.396,17.258,45.076,24.111,70.422,26.196c17.176,1.413,34.442,0.826,51.654,0.702c18.266-0.132,35.998,0.565,54.067,3.448
				c0.039,0.006,0.07-0.005,0.108-0.003c23.099,8.486,47.245,14.433,63.932,34.177c16.786,19.86,20.607,52.294,9.786,75.805
				c-10.919,23.726-36.746,37.067-61.839,39.634c-13.615,1.393-27.515-0.292-40.395-4.912
				c-12.816-4.598-24.589-11.799-37.231-16.881c-14.526-5.839-29.596-11.181-44.757-15.108
				C275.64,399.056,263.845,396.933,252.421,398.238z M307.097,414.304c-0.004,0.019-0.008,0.039-0.012,0.058
				c-10.586-4.445-21.468-8.253-32.552-11.258c6.269,1.15,12.509,2.805,18.81,4.771c4.744,1.48,9.489,3.003,14.217,4.586
				C307.376,413.066,307.219,413.679,307.097,414.304z M318.929,419.204c-0.029,0.132-0.06,0.267-0.091,0.402
				c-3.454-1.638-6.947-3.208-10.473-4.709c0.025-0.235,0.053-0.467,0.097-0.688c0.089-0.45,0.209-0.89,0.332-1.328
				c3.622,1.223,7.235,2.475,10.823,3.793C319.357,417.507,319.115,418.345,318.929,419.204z M332.025,426.264
				c-1.5-0.796-2.993-1.602-4.504-2.382c-2.424-1.251-4.874-2.459-7.339-3.644c0.041-0.316,0.084-0.629,0.144-0.931
				c0.145-0.732,0.316-1.46,0.507-2.183c4.133,1.534,8.24,3.134,12.296,4.841C332.621,423.347,332.161,424.831,332.025,426.264z
				 M333.382,426.981c0.139-0.755,0.222-1.525,0.363-2.291c0.139-0.76,0.297-1.511,0.481-2.256c0.963,0.411,1.931,0.812,2.889,1.234
				c3.154,1.391,6.259,2.88,9.351,4.389c-0.563,1.699-1.131,3.471-1.348,5.199C341.215,431.182,337.306,429.074,333.382,426.981z
				 M358.771,440.161c-4.198-1.966-8.349-4.095-12.49-6.285c0.635-1.641,0.994-3.461,1.376-5.235
				c4.414,2.161,8.811,4.34,13.298,6.307c-0.356,0.782-0.649,1.602-0.97,2.378C359.603,438.254,359.155,439.199,358.771,440.161z
				 M360.134,440.799c0.326-0.802,0.614-1.624,0.922-2.406c0.37-0.938,0.83-1.904,1.172-2.89c3.966,1.695,8.009,3.21,12.203,4.381
				c-0.376,1.144-0.82,2.242-1.447,3.305c-0.472,0.801-1.084,1.499-1.662,2.219C367.536,444.045,363.815,442.487,360.134,440.799z
				 M386.134,449.529c-4.592-0.874-9.048-2.131-13.42-3.641c1.38-1.535,2.318-3.756,2.767-5.722c0.323,0.085,0.642,0.179,0.967,0.26
				c4.188,1.044,8.442,1.786,12.725,2.256c-0.494,1.325-0.899,2.689-1.495,3.979C387.225,447.639,386.651,448.573,386.134,449.529z
				 M406.296,450.77c-1.174,0.071-2.347,0.142-3.53,0.17c-5.168,0.121-10.144-0.289-14.974-1.108
				c0.534-0.915,0.967-1.904,1.365-2.827c0.568-1.317,1.151-2.742,1.431-4.187c5.986,0.567,12.021,0.598,18.013,0.058
				c0.012,1.57-0.856,3.552-1.218,4.726C407.057,448.661,406.651,449.71,406.296,450.77z M422.035,444.962
				c-0.092,1.292-0.377,2.543-0.66,3.795c-4.423,0.915-8.912,1.568-13.471,1.917c0.634-1.693,1.064-3.506,1.468-5.188
				c0.215-0.895,0.467-1.846,0.397-2.72c2.395-0.245,4.782-0.574,7.154-0.995c1.567-0.279,3.13-0.613,4.688-0.976
				C421.944,442.134,422.141,443.466,422.035,444.962z M440.873,443.084c-5.882,2.172-11.87,3.999-17.981,5.348
				c0.588-2.602,0.711-5.519-0.195-7.89c6.144-1.511,12.181-3.672,17.9-6.46C442.098,436.928,441.596,439.985,440.873,443.084z
				 M442.434,442.51c1.225-2.74,0.667-6.258-0.839-8.917c4.891-2.462,9.538-5.384,13.8-8.759c1.244,1.332,2.322,2.786,3.052,4.513
				c0.815,1.927,0.767,3.835,0.982,5.762C453.854,437.806,448.195,440.317,442.434,442.51z M477.649,424.436
				c-4.147,3.571-8.741,5.517-13.546,7.94c-0.499,0.251-3.088,1.235-3.096,1.963c0.019-1.909-0.634-3.987-1.307-5.52
				c-0.795-1.812-1.92-3.456-3.384-4.725c0.347,0.301,6.282-5.771,6.84-6.364c1.575-1.674,3.046-3.428,4.429-5.244
				c2.518,1.049,5.123,1.777,7.398,3.435c1.465,1.068,2.796,2.418,3.741,3.97c0.506,0.831,0.824,1.673,1.093,2.531
				C479.116,423.115,478.397,423.792,477.649,424.436z M487.486,412.476c-1.78,3.072-3.897,5.95-6.314,8.551
				c-1.899-4.783-7.939-8.582-12.815-9.552c2.674-3.662,4.947-7.601,6.755-11.808c0.047-0.11,0.085-0.224,0.132-0.334
				c5.548-0.177,11.397,3.252,15.235,7.274C489.581,408.608,488.59,410.57,487.486,412.476z M491.047,405.275
				c-0.273-0.225-0.56-0.448-0.853-0.685c-1.674-1.353-3.339-2.953-5.252-3.966c-2.735-1.449-6.094-2.545-9.273-2.368
				c1.801-4.474,3.134-9.197,3.991-14.065c2.957,0.43,5.916,0.632,8.833,1.485c2.705,0.791,5.056,1.874,7.331,3.303
				C494.818,394.566,493.252,400.054,491.047,405.275z M496.578,384.108c-0.135,1.096-0.298,2.189-0.474,3.28
				c-2.085-1.323-4.601-2.184-6.799-2.847c-2.927-0.884-6.292-1.633-9.458-1.476c0.673-4.194,1.025-8.475,1.024-12.78
				c3.301-0.28,6.611-0.401,9.923-0.287c2.451,0.085,4.5,0.576,6.616,1.255C497.371,375.578,497.1,379.881,496.578,384.108z
				 M492.472,368.818c-3.855-0.28-7.769-0.03-11.612,0.371c-0.06-4.467-0.468-8.946-1.232-13.352
				c3.072-0.622,6.035-1.704,9.258-1.846c2.689-0.119,5.095,0.343,7.509,1.034c0.668,4.847,1.007,9.742,1.032,14.615
				C495.81,369.131,494.044,368.932,492.472,368.818z"/>
		</g>
	</g>
</g>
<g>
</g>
<g>
</g>
<g>
</g>
<g>
</g>
<g>
</g>
<g>
</g>
<g>
</g>
<g>
</g>
<g>
</g>
<g>
</g>
<g>
</g>
<g>
</g>
<g>
</g>
<g>
</g>
<g>
</g>
</svg>
